/* XPM */
static char *ea57d30501fa4d38a91327fabb6a86bc[] = {
/* columns rows colors chars-per-pixel */
"32 32 62 1 ",
"  c None",
". c #7DB951",
"X c #7EBA50",
"o c #7DB953",
"O c #79B857",
"+ c #7AB856",
"@ c #7CB955",
"# c #77B75A",
"$ c #73B55E",
"% c #75B65C",
"& c #78B759",
"* c #4FAA7F",
"= c #5FAF72",
"- c #5BAE75",
"; c #5AAD76",
": c #5DAE74",
"> c #53AB7B",
", c #56AC78",
"< c #55AC7A",
"1 c #51AB7C",
"2 c #50AA7D",
"3 c #58AD78",
"4 c #6BB267",
"5 c #6DB364",
"6 c #6CB365",
"7 c #63B06F",
"8 c #65B06D",
"9 c #66B16C",
"0 c #69B269",
"q c #68B16B",
"w c #71B560",
"e c #60AF71",
"r c #62B070",
"t c #87BD44",
"y c #86BD46",
"u c #88BE43",
"i c #83BC4A",
"p c #85BC48",
"a c #81BB4D",
"s c #82BB4C",
"d c #80BA4F",
"f c #18A196",
"g c #1DA296",
"h c #30A48F",
"j c #33A58E",
"k c #36A58C",
"l c #3BA68A",
"z c #3DA789",
"x c #3FA788",
"c c #38A68C",
"v c #26A393",
"b c #22A294",
"n c #29A392",
"m c #2EA390",
"M c #2DA491",
"N c #42A787",
"B c #46A884",
"V c #44A886",
"C c #4AA982",
"Z c #4CA981",
"A c #4EAA80",
"S c #48A984",
/* pixels */
"                                ",
"                                ",
"                                ",
"                                ",
"                                ",
"                                ",
"                                ",
"                                ",
"                                ",
"                                ",
"                                ",
"                                ",
"  uuuu           qr-      gfff  ",
" uuuuuu        48r->A    ffffff ",
"uuuuuuuuy     08=32ZVl   fffffff",
"uuuuuuuyso&$507:3*ZNcm  ffffffff",
"uuuuuups@#w50r-<*SxkMg  ffffffff",
"uuuuupo&#     >ABljnff   fffffff",
" uuuao&        Vlhvff    ffffff ",
"  yao&           bff      ffff  ",
"                                ",
"                                ",
"                                ",
"                                ",
"                                ",
"                                ",
"                                ",
"                                ",
"                                ",
"                                ",
"                                ",
"                                "
};
