/* XPM */
static char *_55a0d857e9d48299ee96648e97a52c1[] = {
/* columns rows colors chars-per-pixel */
"16 16 24 1 ",
"  c None",
". c #7DB951",
"X c #7CB955",
"o c #74B65D",
"O c #4FAA7F",
"+ c #5FAF72",
"@ c #5BAE75",
"# c #51AB7C",
"$ c #6CB365",
"% c #69B269",
"& c #68B16B",
"* c #71B560",
"= c #62B070",
"- c #87BD44",
"; c #88BE43",
": c #85BC48",
"> c #82BB4C",
", c #18A196",
"< c #1DA296",
"1 c #3BA68A",
"2 c #3FA788",
"3 c #26A393",
"4 c #2DA491",
"5 c #44A886",
/* pixels */
"                ",
"                ",
"                ",
"                ",
"                ",
"                ",
" ;;     $=   <, ",
";;;;-.o%+#5 ,,,,",
";;;:X*%@O24 ,,,,",
" ;>     13   ,, ",
"                ",
"                ",
"                ",
"                ",
"                ",
"                "
};
