/* XPM */
static char *f3dc307375314355d8fd0099fda6aa00[] = {
/* columns rows colors chars-per-pixel */
"64 64 104 2 ",
"   c None",
".  c #7DB951",
"X  c #7EBA50",
"o  c #7DB952",
"O  c #7DB953",
"+  c #7BB855",
"@  c #79B857",
"#  c #7AB856",
"$  c #7CB954",
"%  c #7CB955",
"&  c #75B65B",
"*  c #77B75A",
"=  c #73B55E",
"-  c #73B55F",
";  c #75B65C",
":  c #74B65D",
">  c #78B758",
",  c #78B759",
"<  c #4FAA7F",
"1  c #5FAF72",
"2  c #5EAF73",
"3  c #5BAE75",
"4  c #5AAD76",
"5  c #5AAD77",
"6  c #5DAE74",
"7  c #53AB7B",
"8  c #56AC78",
"9  c #56AC79",
"0  c #55AC7A",
"q  c #51AB7C",
"w  c #50AA7D",
"e  c #51AB7D",
"r  c #50AA7E",
"t  c #58AD78",
"y  c #6FB463",
"u  c #6BB267",
"i  c #6DB364",
"p  c #6CB365",
"a  c #6DB365",
"s  c #6CB366",
"d  c #6FB464",
"f  c #63B06E",
"g  c #62B06F",
"h  c #63B06F",
"j  c #65B06C",
"k  c #65B06D",
"l  c #66B16C",
"z  c #69B269",
"x  c #6BB268",
"c  c #68B16A",
"v  c #68B16B",
"b  c #71B560",
"n  c #70B461",
"m  c #71B561",
"M  c #70B462",
"N  c #60AF70",
"B  c #60AF71",
"V  c #62B070",
"C  c #87BD44",
"Z  c #87BD45",
"A  c #86BD46",
"S  c #88BE43",
"D  c #83BC4A",
"F  c #83BC4B",
"G  c #85BC48",
"H  c #85BC49",
"J  c #81BB4D",
"K  c #82BB4C",
"L  c #81BB4E",
"P  c #80BA4F",
"I  c #19A195",
"U  c #18A196",
"Y  c #1DA295",
"T  c #1DA296",
"R  c #30A48F",
"E  c #33A58E",
"W  c #36A58C",
"Q  c #36A58D",
"!  c #3BA68A",
"~  c #3BA68B",
"^  c #3DA789",
"/  c #3FA788",
"(  c #3DA68A",
")  c #38A68C",
"_  c #22A293",
"`  c #27A392",
"'  c #26A393",
"]  c #22A294",
"[  c #29A392",
"{  c #2AA392",
"}  c #2EA390",
"|  c #2DA490",
" . c #2DA491",
".. c #42A787",
"X. c #41A886",
"o. c #44A885",
"O. c #46A884",
"+. c #44A886",
"@. c #48A983",
"#. c #4AA982",
"$. c #4CA981",
"%. c #4CAA80",
"&. c #4EAA80",
"*. c #48A984",
/* pixels */
"                                                                                                                                ",
"                                                                                                                                ",
"                                                                                                                                ",
"                                                                                                                                ",
"                                                                                                                                ",
"                                                                                                                                ",
"                                                                                                                                ",
"                                                                                                                                ",
"                                                                                                                                ",
"                                                                                                                                ",
"                                                                                                                                ",
"                                                                                                                                ",
"                                                                                                                                ",
"                                                                                                                                ",
"                                                                                                                                ",
"                                                                                                                                ",
"                                                                                                                                ",
"                                                                                                                                ",
"                                                                                                                                ",
"                                                                                                                                ",
"                                                                                                                                ",
"                                                                                                                                ",
"                                                                                                                                ",
"                                                                                                                                ",
"          S S S S S                                                   l N 6 6                               U U U U U           ",
"      S S S S S S S S S                                           l l N 6 6 t 0 e                       U U U U U U U U U       ",
"    S S S S S S S S S S S                                       l f N 6 4 9 7 e < @.                  U U U U U U U U U U U     ",
"  S S S S S S S S S S S S S                                 v l f 2 6 t 9 7 e @.@.+./               U U U U U U U U U U U U U   ",
"  S S S S S S S S S S S S S S S                           v l N 2 4 4 7 e e $.*.+./ ~ Q           U U U U U U U U U U U U U U   ",
"S S S S S S S S S S S S S S S A G L L               a v l f N 2 6 t 7 e < @.+.X./ ~ Q E           U U U U U U U U U U U U U U U ",
"S S S S S S S S S S S S S S A F L X O # , : : M a v u l f V 6 4 8 7 e < @.+.+./ ) E } [           U U U U U U U U U U U U U U U ",
"S S S S S S S S S S S S S A F L X O # * : b M a a v j f 1 6 t 9 7 e < @.+./ / Q E | ` Y           U U U U U U U U U U U U U U U ",
"S S S S S S S S S S S A G K L O # # * - - y a v l l V 1 3 9 9 7 < @.@.+./ ~ W E | ` Y U           U U U U U U U U U U U U U U U ",
"S S S S S S S S S S A A K X O # @ * - b y a v l f V 1 3 t 0 7 $.@.@.../ ~ Q R [ _ U U U           U U U U U U U U U U U U U U U ",
"S S S S S S S S S A F K X O # @ : - b a u z l f 1 6 4 9 7 7 $.$.@.../ Q E } [ ] U U U U           U U U U U U U U U U U U U U U ",
"  S S S S S S S A K L O O @ * :                           @.*.+./ / Q E } ` Y U U U U U           U U U U U U U U U U U U U U   ",
"  S S S S S S G K L X @ @ *                                 +...~ ) R | ` U U U U U U               U U U U U U U U U U U U U   ",
"    S S S A G L L O + @ *                                     ) Q R [ _ U U U U U U U                 U U U U U U U U U U U     ",
"      S A F K O O @ @ *                                           [ ] U U U U U U U                     U U U U U U U U U       ",
"          L X $ @ *                                                   U U U U U                             U U U U U           ",
"                                                                                                                                ",
"                                                                                                                                ",
"                                                                                                                                ",
"                                                                                                                                ",
"                                                                                                                                ",
"                                                                                                                                ",
"                                                                                                                                ",
"                                                                                                                                ",
"                                                                                                                                ",
"                                                                                                                                ",
"                                                                                                                                ",
"                                                                                                                                ",
"                                                                                                                                ",
"                                                                                                                                ",
"                                                                                                                                ",
"                                                                                                                                ",
"                                                                                                                                ",
"                                                                                                                                ",
"                                                                                                                                ",
"                                                                                                                                ",
"                                                                                                                                ",
"                                                                                                                                ",
"                                                                                                                                ",
"                                                                                                                                "
};
