<?xml version="1.0" encoding="utf-8"?>
<!-- Generator: Adobe Illustrator 23.1.1, SVG Export Plug-In . SVG Version: 6.00 Build 0)  -->
<svg version="1.1" id="Ebene_1" xmlns="http://www.w3.org/2000/svg" xmlns:xlink="http://www.w3.org/1999/xlink" x="0px" y="0px"
	 viewBox="0 0 841.9 841.9" style="enable-background:new 0 0 841.9 841.9;" xml:space="preserve">
<style type="text/css">
	.st0{fill-rule:evenodd;clip-rule:evenodd;fill:url(#SVGID_1_);}
	.st1{fill:#2C2D2D;stroke:#2B2D2D;stroke-miterlimit:10;}
	.st2{fill-rule:evenodd;clip-rule:evenodd;fill:#2C2D2D;stroke:#2B2D2D;stroke-miterlimit:10;}
	.st3{fill-rule:evenodd;clip-rule:evenodd;fill:url(#SVGID_2_);}
	.st4{fill-rule:evenodd;clip-rule:evenodd;fill:url(#SVGID_3_);}
</style>
<g>
	<linearGradient id="SVGID_1_" gradientUnits="userSpaceOnUse" x1="297.7" y1="295.0104" x2="297.7" y2="747.1146">
		<stop  offset="0.3933" style="stop-color:#86BC43"/>
		<stop  offset="0.7499" style="stop-color:#12A095"/>
	</linearGradient>
	<path class="st0" d="M291.3,405.2L291.3,405.2c0-29.2-73.6-38.8-107.7-89.1h228.1C377.7,366.4,304,376,304,405.2l0,0H291.3z"/>
	<path class="st1" d="M321.2,645.3H170.4l-2.3-2.7c-13.8-15.5-22.3-34.9-26.1-54.5c-4.2-21.7-2.6-43.6,3.9-60.4
		c15.9-41.2,51.6-61.4,79.8-77.5c19-10.9,34.2-19.5,34.2-29.4c0-9.9-15.2-18.5-34.2-29.4c-28.3-16.1-63.9-36.3-79.8-77.5
		c-6.5-16.7-8.1-38.7-3.9-60.4c3.8-19.5,12.3-39,26.1-54.5l2.3-2.6H425l2.3,2.6c13.8,15.5,22.3,35,26.1,54.5
		c4.2,21.7,2.6,43.6-3.9,60.4c-15.9,41.2-51.6,61.5-79.8,77.5c-19.1,10.9-34.3,19.5-34.3,29.4c0,9.9,15.2,18.5,34.3,29.4
		c28.3,16.1,63.9,36.4,79.8,77.5c6.5,16.8,8.1,38.7,3.9,60.4c-3.8,19.5-12.3,38.9-26.1,54.5l-2.3,2.7H321.2z M177.5,629.7h240.4
		c10.5-12.8,17-28.6,20.1-44.4c3.7-18.9,2.4-37.7-3.1-51.8c-13.9-36-46.9-54.7-73-69.6c-23.5-13.4-42.2-24-42.2-43
		c0-18.9,18.8-29.6,42.2-42.9c26.1-14.9,59.1-33.6,73-69.6c5.4-14.1,6.7-32.9,3.1-51.8c-3.1-15.8-9.6-31.5-20.1-44.4H177.5
		c-10.5,12.9-17,28.6-20.1,44.4c-3.6,18.9-2.4,37.7,3.1,51.8c13.9,36,46.8,54.7,73,69.6c23.5,13.4,42.2,24,42.2,42.9
		c0,19-18.7,29.6-42.2,43c-26.2,14.8-59.1,33.6-73,69.6c-5.4,14.1-6.7,33-3.1,51.8C160.5,601.1,167,616.8,177.5,629.7L177.5,629.7z"
		/>
	<path class="st2" d="M139.4,192.6H456l0,0c0,10.7-8.8,19.5-19.5,19.5H158.9C148.1,212.1,139.4,203.4,139.4,192.6L139.4,192.6z"/>
	<path class="st2" d="M135,156.2h325.3c10.3,0,18.7,8.4,18.7,18.7l0,0c0,10.3-8.4,18.7-18.7,18.7H135c-10.3,0-18.6-8.4-18.6-18.7
		l0,0C116.4,164.5,124.8,156.2,135,156.2L135,156.2z"/>
	<path class="st2" d="M139.4,649.2H456l0,0c0-10.7-8.8-19.5-19.5-19.5H158.9C148.1,629.7,139.4,638.4,139.4,649.2L139.4,649.2z"/>
	<path class="st2" d="M135,685.6h325.3c10.3,0,18.7-8.4,18.7-18.7l0,0c0-10.3-8.4-18.7-18.7-18.7H135c-10.3,0-18.6,8.4-18.6,18.7
		l0,0C116.4,677.2,124.8,685.6,135,685.6L135,685.6z"/>
	<linearGradient id="SVGID_2_" gradientUnits="userSpaceOnUse" x1="297.6994" y1="295.0104" x2="297.6994" y2="747.1146">
		<stop  offset="0.3933" style="stop-color:#86BC43"/>
		<stop  offset="0.7499" style="stop-color:#12A095"/>
	</linearGradient>
	<rect x="291.3" y="390.6" class="st3" width="12.7" height="186"/>
	<linearGradient id="SVGID_3_" gradientUnits="userSpaceOnUse" x1="297.7" y1="295.0104" x2="297.7" y2="747.1146">
		<stop  offset="0.3933" style="stop-color:#86BC43"/>
		<stop  offset="0.7499" style="stop-color:#12A095"/>
	</linearGradient>
	<path class="st4" d="M423.5,549.2l-125.8-36.9l-125.8,36.9c-2.9,20.7,1.2,43.9,13.9,64.8h223.7
		C422.3,593.1,426.4,569.9,423.5,549.2L423.5,549.2z"/>
</g>
</svg>
