<?xml version="1.0" encoding="utf-8"?>
<!-- Generator: Adobe Illustrator 23.1.1, SVG Export Plug-In . SVG Version: 6.00 Build 0)  -->
<svg version="1.1"
	 id="Ebene_1" xmlns:cc="http://creativecommons.org/ns#" xmlns:dc="http://purl.org/dc/elements/1.1/" xmlns:rdf="http://www.w3.org/1999/02/22-rdf-syntax-ns#" xmlns:svg="http://www.w3.org/2000/svg"
	 xmlns="http://www.w3.org/2000/svg" xmlns:xlink="http://www.w3.org/1999/xlink" x="0px" y="0px" viewBox="0 0 841.9 841.9"
	 style="enable-background:new 0 0 841.9 841.9;" xml:space="preserve">
<style type="text/css">
	.st0{fill-rule:evenodd;clip-rule:evenodd;fill:url(#SVGID_1_);}
	.st1{fill:#2C2D2D;stroke:#2B2D2D;stroke-miterlimit:10;}
	.st2{fill-rule:evenodd;clip-rule:evenodd;fill:#2C2D2D;stroke:#2B2D2D;stroke-miterlimit:10;}
</style>
<g>
	<linearGradient id="SVGID_1_" gradientUnits="userSpaceOnUse" x1="297.6886" y1="169.519" x2="297.6886" y2="717.7532">
		<stop  offset="0.3933" style="stop-color:#86BC43"/>
		<stop  offset="0.7499" style="stop-color:#12A095"/>
	</linearGradient>
	<path class="st0" d="M181.5,614c-12.6-25.5-13.4-53.4-4.8-75.5c6-15.4,15-27.7,25.3-37.9h191.3c10.4,10.2,19.4,22.6,25.3,37.9
		c8.6,22.1,7.8,50.1-4.8,75.5H181.5z"/>
	<path class="st1" d="M321.2,645.3H170.4l-2.4-2.7c-13.8-15.5-22.3-34.9-26-54.5c-4.2-21.7-2.6-43.6,3.8-60.4
		c15.9-41.2,51.6-61.4,79.8-77.5c19.1-10.9,34.3-19.5,34.3-29.4c0-9.9-15.2-18.5-34.3-29.4c-28.3-16.1-63.9-36.3-79.8-77.5
		c-6.5-16.7-8.1-38.7-3.8-60.4c3.8-19.5,12.2-39,26-54.5l2.4-2.6H425l2.4,2.6c13.8,15.5,22.2,35,26,54.5c4.2,21.7,2.6,43.6-3.9,60.4
		c-15.9,41.2-51.6,61.5-79.8,77.5c-19.1,10.9-34.3,19.5-34.3,29.4c0,9.9,15.2,18.5,34.3,29.4c28.2,16.1,63.9,36.4,79.8,77.5
		c6.5,16.8,8.1,38.7,3.9,60.4c-3.8,19.5-12.2,38.9-26,54.5l-2.4,2.7H321.2z M177.5,629.6h240.3c10.5-12.8,17.1-28.6,20.1-44.4
		c3.6-18.9,2.4-37.7-3.1-51.8c-13.9-36-46.8-54.7-72.9-69.6c-23.5-13.4-42.2-24-42.2-43c0-18.9,18.7-29.6,42.2-42.9
		c26.1-14.9,59-33.6,72.9-69.6c5.5-14.1,6.7-32.9,3.1-51.8c-3.1-15.8-9.6-31.5-20.1-44.4H177.5c-10.5,12.9-17,28.6-20.1,44.4
		c-3.7,18.9-2.4,37.7,3.1,51.8c13.9,36,46.9,54.7,73,69.6c23.5,13.4,42.2,24,42.2,42.9c0,19-18.7,29.6-42.2,43
		c-26.1,14.8-59,33.6-73,69.6c-5.4,14.1-6.7,32.9-3.1,51.8C160.5,601.1,167,616.8,177.5,629.6L177.5,629.6z"/>
	<path class="st2" d="M139.4,192.7H456l0,0c0,10.7-8.8,19.5-19.5,19.5H158.9C148.1,212.2,139.4,203.4,139.4,192.7L139.4,192.7z"/>
	<path class="st2" d="M135.1,156.2h325.2c10.3,0,18.7,8.4,18.7,18.7l0,0c0,10.3-8.4,18.6-18.7,18.6H135.1
		c-10.3,0-18.7-8.4-18.7-18.6l0,0C116.4,164.6,124.8,156.2,135.1,156.2L135.1,156.2z"/>
	<path class="st2" d="M139.4,649.1H456l0,0c0-10.7-8.8-19.5-19.5-19.5H158.9C148.1,629.6,139.4,638.4,139.4,649.1L139.4,649.1z"/>
	<path class="st2" d="M135.1,685.6h325.2c10.3,0,18.7-8.4,18.7-18.7l0,0c0-10.3-8.4-18.7-18.7-18.7H135.1
		c-10.3,0-18.7,8.4-18.7,18.7l0,0C116.4,677.2,124.8,685.6,135.1,685.6L135.1,685.6z"/>
</g>
</svg>
