<?xml version="1.0" encoding="utf-8"?>
<!-- Generator: Adobe Illustrator 23.1.1, SVG Export Plug-In . SVG Version: 6.00 Build 0)  -->
<svg version="1.1" id="Ebene_1" xmlns="http://www.w3.org/2000/svg" xmlns:xlink="http://www.w3.org/1999/xlink" x="0px" y="0px"
	 viewBox="0 0 841.9 841.9" style="enable-background:new 0 0 841.9 841.9;" xml:space="preserve">
<style type="text/css">
	.st0{fill-rule:evenodd;clip-rule:evenodd;fill:url(#SVGID_1_);}
	.st1{fill:#2C2D2D;stroke:#2B2D2D;stroke-miterlimit:10;}
	.st2{fill-rule:evenodd;clip-rule:evenodd;fill:#2C2D2D;stroke:#2B2D2D;stroke-miterlimit:10;}
</style>
<g>
	<linearGradient id="SVGID_1_" gradientUnits="userSpaceOnUse" x1="297.6915" y1="184.135" x2="297.6915" y2="447.7248">
		<stop  offset="0.3933" style="stop-color:#86BC43"/>
		<stop  offset="0.7499" style="stop-color:#12A095"/>
	</linearGradient>
	<path class="st0" d="M291.3,405.2L291.3,405.2c0-32.9-88-40.9-114.6-109.7c-7.7-19.9,2.5-50.7,13.1-67.7h107.9h107.9
		c10.6,17,20.8,47.8,13.1,67.7C392.1,364.3,304,372.4,304,405.2l0,0h-6.3H291.3z"/>
	<path class="st1" d="M321.2,645.3H170.4l-2.3-2.6c-13.8-15.5-22.3-35-26.1-54.5c-4.2-21.7-2.6-43.6,3.9-60.4
		c15.9-41.2,51.6-61.5,79.8-77.5c19-10.9,34.2-19.5,34.2-29.4c0-9.9-15.2-18.5-34.2-29.4c-28.3-16.1-63.9-36.3-79.8-77.5
		c-6.5-16.7-8.1-38.7-3.9-60.4c3.8-19.5,12.3-38.9,26.1-54.5l2.3-2.6H425l2.3,2.6c13.8,15.5,22.3,35,26.1,54.5
		c4.2,21.7,2.6,43.7-3.9,60.4c-15.9,41.2-51.6,61.5-79.8,77.5c-19.1,10.9-34.3,19.5-34.3,29.4c0,9.9,15.2,18.5,34.3,29.4
		c28.3,16.1,63.9,36.3,79.8,77.5c6.5,16.7,8.1,38.7,3.9,60.4c-3.8,19.5-12.3,39-26.1,54.5l-2.3,2.6H321.2z M177.5,629.6h240.4
		c10.5-12.8,17-28.6,20.1-44.4c3.7-18.9,2.4-37.7-3.1-51.8c-13.9-36-46.9-54.7-73-69.6c-23.5-13.4-42.2-24-42.2-43
		c0-19,18.8-29.6,42.2-43c26.1-14.8,59.1-33.6,73-69.6c5.4-14.1,6.7-32.9,3.1-51.8c-3.1-15.8-9.6-31.5-20.1-44.4H177.5
		c-10.5,12.8-17,28.6-20.1,44.4c-3.6,18.9-2.4,37.7,3.1,51.8c13.9,36,46.8,54.7,73,69.6c23.5,13.4,42.2,24,42.2,43
		c0,19-18.7,29.6-42.2,43c-26.2,14.8-59.1,33.6-73,69.6c-5.4,14.1-6.7,32.9-3.1,51.8C160.5,601.1,167,616.8,177.5,629.6L177.5,629.6
		z"/>
	<path class="st2" d="M139.4,192.6H456l0,0c0,10.7-8.8,19.5-19.5,19.5H158.9C148.1,212.2,139.4,203.3,139.4,192.6L139.4,192.6z"/>
	<path class="st2" d="M135,156.2h325.3c10.3,0,18.7,8.4,18.7,18.6l0,0c0,10.3-8.4,18.7-18.7,18.7H135c-10.3,0-18.6-8.4-18.6-18.7
		l0,0C116.4,164.6,124.8,156.2,135,156.2L135,156.2z"/>
	<path class="st2" d="M139.4,649.2H456l0,0c0-10.8-8.8-19.5-19.5-19.5H158.9C148.1,629.6,139.4,638.4,139.4,649.2L139.4,649.2z"/>
	<path class="st2" d="M135,685.6h325.3c10.3,0,18.7-8.4,18.7-18.7l0,0c0-10.3-8.4-18.7-18.7-18.7H135c-10.3,0-18.6,8.4-18.6,18.7
		l0,0C116.4,677.2,124.8,685.6,135,685.6L135,685.6z"/>
</g>
</svg>
