<?xml version="1.0" encoding="utf-8"?>
<!-- Generator: Adobe Illustrator 23.1.1, SVG Export Plug-In . SVG Version: 6.00 Build 0)  -->
<svg version="1.1"
	 id="svg2" xmlns:cc="http://creativecommons.org/ns#" xmlns:dc="http://purl.org/dc/elements/1.1/" xmlns:rdf="http://www.w3.org/1999/02/22-rdf-syntax-ns#" xmlns:svg="http://www.w3.org/2000/svg"
	 xmlns="http://www.w3.org/2000/svg" xmlns:xlink="http://www.w3.org/1999/xlink" x="0px" y="0px" viewBox="0 0 92 92"
	 style="enable-background:new 0 0 92 92;" xml:space="preserve">
<style type="text/css">
	.st0{fill:#2C2D2D;}
	.st1{fill:#13948A;}
</style>
<g>
	<path class="st0" d="M41.8,65.1c-8.4,0-15.2-6.8-15.2-15.2s6.8-15.2,15.2-15.2s15.2,6.8,15.2,15.2S50.1,65.1,41.8,65.1z M41.8,37.8
		c-6.7,0-12.1,5.4-12.1,12.1s5.4,12.1,12.1,12.1s12.1-5.4,12.1-12.1S48.4,37.8,41.8,37.8z"/>
	<path class="st0" d="M13.2,24.3c-1.7,0-3.5-0.4-5-1.3c-5-2.8-6.8-9.1-4-14.1c2.8-5,9.1-6.8,14.1-4c2.4,1.3,4.2,3.6,4.9,6.2
		c0.8,2.7,0.4,5.5-0.9,7.9c-1.3,2.4-3.6,4.2-6.2,4.9C15.1,24.1,14.1,24.3,13.2,24.3z M13.2,6.7c-2.5,0-4.9,1.3-6.2,3.7
		c-1.9,3.4-0.7,7.8,2.8,9.7c1.7,0.9,3.6,1.1,5.4,0.6c1.8-0.5,3.3-1.7,4.3-3.4l0,0c0.9-1.7,1.1-3.6,0.6-5.4c-0.5-1.8-1.7-3.3-3.4-4.3
		C15.5,7,14.4,6.7,13.2,6.7z"/>
	<path class="st0" d="M9,82.4c-4.4,0-7.9-3.6-7.9-7.9c0-4.4,3.6-7.9,7.9-7.9c4.4,0,7.9,3.6,7.9,7.9C17,78.8,13.4,82.4,9,82.4z
		 M9,69.8c-2.6,0-4.7,2.1-4.7,4.7c0,2.6,2.1,4.7,4.7,4.7c2.6,0,4.7-2.1,4.7-4.7C13.7,71.9,11.6,69.8,9,69.8z"/>
	<path class="st0" d="M50,49.9c0,4.6-3.7,8.3-8.3,8.3c-4.6,0-8.3-3.7-8.3-8.3s3.7-8.3,8.3-8.3C46.3,41.7,50,45.4,50,49.9z"/>
	<rect x="50" y="30.3" transform="matrix(0.8098 -0.5868 0.5868 0.8098 -6.0587 44.367)" class="st0" width="30.7" height="2.5"/>
	<rect x="62.8" y="54.3" transform="matrix(0.6077 -0.7941 0.7941 0.6077 -29.14 77.6949)" class="st0" width="2.5" height="28"/>
	
		<rect x="25.9" y="16.6" transform="matrix(0.7908 -0.6121 0.6121 0.7908 -12.4664 22.7768)" class="st0" width="2.5" height="26.1"/>
	
		<rect x="11.8" y="65.2" transform="matrix(0.8768 -0.4809 0.4809 0.8768 -29.073 19.3607)" class="st0" width="22.9" height="2.5"/>
	<path class="st1" d="M86.8,80.3c0,4.6-3.7,8.3-8.3,8.3c-4.6,0-8.3-3.7-8.3-8.3c0-4.6,3.7-8.3,8.3-8.3C83.1,72,86.8,75.7,86.8,80.3z
		"/>
	<path class="st1" d="M90.9,18.4c0,5.2-4.2,9.4-9.4,9.4c-5.2,0-9.4-4.2-9.4-9.4c0-5.2,4.2-9.4,9.4-9.4C86.7,9,90.9,13.2,90.9,18.4z"
		/>
</g>
</svg>
