<?xml version="1.0" encoding="utf-8"?>
<!-- Generator: Adobe Illustrator 23.1.1, SVG Export Plug-In . SVG Version: 6.00 Build 0)  -->
<svg version="1.1"
	 id="svg2" xmlns:cc="http://creativecommons.org/ns#" xmlns:dc="http://purl.org/dc/elements/1.1/" xmlns:rdf="http://www.w3.org/1999/02/22-rdf-syntax-ns#" xmlns:svg="http://www.w3.org/2000/svg"
	 xmlns="http://www.w3.org/2000/svg" xmlns:xlink="http://www.w3.org/1999/xlink" x="0px" y="0px" viewBox="0 0 92 92"
	 style="enable-background:new 0 0 92 92;" xml:space="preserve">
<style type="text/css">
	.st0{fill:#2C2D2D;}
	.st1{fill:#13948A;}
</style>
<g>
	<path class="st0" d="M41.6,63.8c-8.3,0-15.1-6.8-15.1-15.1s6.8-15.1,15.1-15.1s15.1,6.8,15.1,15.1S49.9,63.8,41.6,63.8z M41.6,36.6
		c-6.7,0-12.1,5.4-12.1,12.1s5.4,12.1,12.1,12.1s12.1-5.4,12.1-12.1S48.3,36.6,41.6,36.6z"/>
	<path class="st0" d="M13.1,23.2c-1.7,0-3.5-0.4-5-1.3c-5-2.8-6.8-9.1-4-14.1c2.8-5,9.1-6.8,14.1-4c2.4,1.3,4.2,3.5,4.9,6.2
		c0.8,2.7,0.4,5.5-0.9,7.9c-1.3,2.4-3.5,4.2-6.2,4.9C15,23,14.1,23.2,13.1,23.2z M13.1,5.7c-2.5,0-4.9,1.3-6.2,3.6
		C5,12.8,6.3,17.1,9.7,19c1.7,0.9,3.6,1.1,5.4,0.6c1.8-0.5,3.3-1.7,4.3-3.4l0,0c0.9-1.7,1.1-3.6,0.6-5.4c-0.5-1.8-1.7-3.3-3.4-4.3
		C15.5,6,14.3,5.7,13.1,5.7z"/>
	<path class="st0" d="M9,81.1c-4.4,0-7.9-3.5-7.9-7.9c0-4.4,3.5-7.9,7.9-7.9c4.4,0,7.9,3.5,7.9,7.9C16.9,77.5,13.3,81.1,9,81.1z
		 M9,68.5c-2.6,0-4.7,2.1-4.7,4.7c0,2.6,2.1,4.7,4.7,4.7c2.6,0,4.7-2.1,4.7-4.7C13.6,70.6,11.5,68.5,9,68.5z"/>
	<path class="st0" d="M80.1,89.6c-5.4,0-9.9-4.4-9.9-9.9c0-5.4,4.4-9.9,9.9-9.9c5.4,0,9.9,4.4,9.9,9.9
		C89.9,85.1,85.5,89.6,80.1,89.6z M80.1,73.1c-3.6,0-6.6,3-6.6,6.6c0,3.6,3,6.6,6.6,6.6c3.6,0,6.6-3,6.6-6.6
		C86.7,76,83.7,73.1,80.1,73.1z"/>
	<path class="st0" d="M49.8,48.7c0,4.6-3.7,8.2-8.2,8.2c-4.6,0-8.2-3.7-8.2-8.2s3.7-8.2,8.2-8.2C46.1,40.5,49.8,44.2,49.8,48.7z"/>
	
		<rect x="49.8" y="29.2" transform="matrix(0.8098 -0.5868 0.5868 0.8098 -5.4414 44.0047)" class="st0" width="30.6" height="2.5"/>
	
		<rect x="62.6" y="53.1" transform="matrix(0.6077 -0.7941 0.7941 0.6077 -28.2225 76.9998)" class="st0" width="2.5" height="27.9"/>
	<rect x="25.8" y="15.5" transform="matrix(0.7908 -0.6121 0.6121 0.7908 -11.7985 22.4794)" class="st0" width="2.5" height="26"/>
	
		<rect x="11.7" y="63.9" transform="matrix(0.8768 -0.4809 0.4809 0.8768 -28.4734 19.1629)" class="st0" width="22.8" height="2.5"/>
	<path class="st1" d="M90.9,17.3c0,5.2-4.2,9.4-9.4,9.4c-5.2,0-9.4-4.2-9.4-9.4c0-5.2,4.2-9.4,9.4-9.4C86.7,8,90.9,12.2,90.9,17.3z"
		/>
</g>
</svg>
