<?xml version="1.0" encoding="utf-8"?>
<!-- Generator: Adobe Illustrator 23.1.1, SVG Export Plug-In . SVG Version: 6.00 Build 0)  -->
<svg version="1.1"
	 id="svg2" xmlns:cc="http://creativecommons.org/ns#" xmlns:dc="http://purl.org/dc/elements/1.1/" xmlns:rdf="http://www.w3.org/1999/02/22-rdf-syntax-ns#" xmlns:svg="http://www.w3.org/2000/svg"
	 xmlns="http://www.w3.org/2000/svg" xmlns:xlink="http://www.w3.org/1999/xlink" x="0px" y="0px" viewBox="0 0 92 92"
	 style="enable-background:new 0 0 92 92;" xml:space="preserve">
<style type="text/css">
	.st0{fill:#2C2D2D;}
</style>
<g>
	<path class="st0" d="M39.6,63c-7.9,0-14.4-6.4-14.4-14.4s6.4-14.4,14.4-14.4S54,40.7,54,48.6S47.5,63,39.6,63z M39.6,37.1
		c-6.3,0-11.5,5.2-11.5,11.5s5.2,11.5,11.5,11.5s11.5-5.2,11.5-11.5S45.9,37.1,39.6,37.1z"/>
	<path class="st0" d="M12.5,24.3c-1.7,0-3.3-0.4-4.8-1.2C3,20.4,1.3,14.4,3.9,9.7c2.6-4.7,8.6-6.5,13.4-3.8c2.3,1.3,4,3.4,4.7,5.9
		c0.7,2.5,0.4,5.2-0.9,7.5c-1.3,2.3-3.4,4-5.9,4.7C14.3,24.2,13.4,24.3,12.5,24.3z M12.5,7.7c-2.4,0-4.7,1.3-5.9,3.5
		c-1.8,3.3-0.6,7.4,2.6,9.2c1.6,0.9,3.4,1.1,5.1,0.6c1.7-0.5,3.2-1.6,4-3.2l0,0c0.9-1.6,1.1-3.4,0.6-5.1c-0.5-1.7-1.6-3.2-3.2-4
		C14.8,8,13.7,7.7,12.5,7.7z"/>
	<path class="st0" d="M81.1,27.5c-1.7,0-3.3-0.4-4.8-1.2c-4.7-2.6-6.5-8.6-3.8-13.4c2.6-4.7,8.6-6.5,13.4-3.8c2.3,1.3,4,3.4,4.7,5.9
		c0.7,2.5,0.4,5.2-0.9,7.5c-1.3,2.3-3.4,4-5.9,4.7C82.9,27.3,82,27.5,81.1,27.5z M81.1,10.9c-2.4,0-4.7,1.3-5.9,3.5
		c-1.8,3.3-0.6,7.4,2.6,9.2c1.6,0.9,3.4,1.1,5.1,0.6c1.7-0.5,3.2-1.6,4-3.2l0,0c0.9-1.6,1.1-3.4,0.6-5.1c-0.5-1.7-1.6-3.2-3.2-4
		C83.3,11.1,82.2,10.9,81.1,10.9z"/>
	<path class="st0" d="M8.6,79.3c-4.1,0-7.5-3.4-7.5-7.5c0-4.1,3.4-7.5,7.5-7.5c4.1,0,7.5,3.4,7.5,7.5C16.1,75.9,12.7,79.3,8.6,79.3z
		 M8.6,67.4c-2.4,0-4.4,2-4.4,4.4c0,2.4,2,4.4,4.4,4.4c2.4,0,4.4-2,4.4-4.4C13,69.4,11,67.4,8.6,67.4z"/>
	<path class="st0" d="M76.1,87.4c-5.2,0-9.4-4.2-9.4-9.4c0-5.2,4.2-9.4,9.4-9.4c5.2,0,9.4,4.2,9.4,9.4
		C85.5,83.2,81.3,87.4,76.1,87.4z M76.1,71.7c-3.5,0-6.3,2.8-6.3,6.3c0,3.5,2.8,6.3,6.3,6.3c3.5,0,6.3-2.8,6.3-6.3
		C82.4,74.6,79.6,71.7,76.1,71.7z"/>
	<path class="st0" d="M47.4,48.6c0,4.3-3.5,7.8-7.8,7.8c-4.3,0-7.8-3.5-7.8-7.8s3.5-7.8,7.8-7.8C43.9,40.8,47.4,44.3,47.4,48.6z"/>
	<rect x="47.4" y="30" transform="matrix(0.8098 -0.5868 0.5868 0.8098 -6.5001 42.2872)" class="st0" width="29.1" height="2.3"/>
	
		<rect x="59.5" y="52.8" transform="matrix(0.6077 -0.7941 0.7941 0.6077 -28.6139 74.1177)" class="st0" width="2.3" height="26.5"/>
	<rect x="24.5" y="17" transform="matrix(0.7908 -0.6121 0.6121 0.7908 -12.5988 21.874)" class="st0" width="2.3" height="24.7"/>
	<rect x="11.2" y="63" transform="matrix(0.8768 -0.4809 0.4809 0.8768 -28.1519 18.5191)" class="st0" width="21.7" height="2.3"/>
</g>
</svg>
