<?xml version="1.0" encoding="utf-8"?>
<!-- Generator: Adobe Illustrator 23.1.1, SVG Export Plug-In . SVG Version: 6.00 Build 0)  -->
<svg version="1.1"
	 id="svg2" xmlns:cc="http://creativecommons.org/ns#" xmlns:dc="http://purl.org/dc/elements/1.1/" xmlns:rdf="http://www.w3.org/1999/02/22-rdf-syntax-ns#" xmlns:svg="http://www.w3.org/2000/svg"
	 xmlns="http://www.w3.org/2000/svg" xmlns:xlink="http://www.w3.org/1999/xlink" x="0px" y="0px" viewBox="0 0 92 92"
	 style="enable-background:new 0 0 92 92;" xml:space="preserve">
<style type="text/css">
	.st0{fill:#2C2D2D;}
	.st1{fill:#13948A;}
</style>
<g>
	<path class="st0" d="M40.7,65.2c-8.4,0-15.2-6.8-15.2-15.2s6.8-15.2,15.2-15.2S56,41.5,56,49.9S49.2,65.2,40.7,65.2z M40.7,37.8
		c-6.7,0-12.2,5.5-12.2,12.2S34,62.1,40.7,62.1s12.2-5.5,12.2-12.2S47.5,37.8,40.7,37.8z"/>
	<path class="st0" d="M12,24.2c-1.8,0-3.5-0.4-5.1-1.3c-5-2.8-6.9-9.2-4.1-14.2c2.8-5,9.2-6.9,14.2-4.1c2.4,1.4,4.2,3.6,5,6.3
		c0.8,2.7,0.4,5.5-0.9,7.9c-1.4,2.4-3.6,4.2-6.3,5C14,24,13,24.2,12,24.2z M12.1,6.6c-2.5,0-5,1.3-6.3,3.7c-1.9,3.4-0.7,7.8,2.8,9.7
		c1.7,0.9,3.6,1.1,5.4,0.6c1.8-0.5,3.4-1.7,4.3-3.4l0,0c0.9-1.7,1.1-3.6,0.6-5.4c-0.5-1.8-1.7-3.4-3.4-4.3
		C14.4,6.9,13.2,6.6,12.1,6.6z"/>
	<path class="st0" d="M49.1,49.9c0,4.6-3.7,8.3-8.3,8.3c-4.6,0-8.3-3.7-8.3-8.3s3.7-8.3,8.3-8.3C45.3,41.6,49.1,45.4,49.1,49.9z"/>
	
		<rect x="49.1" y="30.2" transform="matrix(0.8098 -0.5868 0.5868 0.8098 -6.1977 43.8224)" class="st0" width="30.8" height="2.5"/>
	
		<rect x="61.9" y="54.4" transform="matrix(0.6077 -0.7941 0.7941 0.6077 -29.5697 77.0036)" class="st0" width="2.5" height="28.1"/>
	
		<rect x="24.8" y="16.5" transform="matrix(0.7908 -0.6121 0.6121 0.7908 -12.6487 22.1127)" class="st0" width="2.5" height="26.2"/>
	<rect x="10.7" y="65.2" transform="matrix(0.8768 -0.4809 0.4809 0.8768 -29.2451 18.8524)" class="st0" width="23" height="2.5"/>
	<path class="st1" d="M86.8,80.4c0,4.6-3.7,8.3-8.3,8.3c-4.6,0-8.3-3.7-8.3-8.3c0-4.6,3.7-8.3,8.3-8.3
		C83.1,72.1,86.8,75.8,86.8,80.4z"/>
	<path class="st1" d="M90.9,18.3c0,5.2-4.2,9.5-9.5,9.5c-5.2,0-9.5-4.2-9.5-9.5c0-5.2,4.2-9.5,9.5-9.5C86.7,8.8,90.9,13.1,90.9,18.3
		z"/>
	<path class="st1" d="M15.1,74.3c0,3.9-3.1,7-7,7c-3.9,0-7-3.1-7-7c0-3.9,3.1-7,7-7C11.9,67.3,15.1,70.4,15.1,74.3z"/>
</g>
</svg>
