<?xml version="1.0" encoding="utf-8"?>
<!-- Generator: Adobe Illustrator 23.1.1, SVG Export Plug-In . SVG Version: 6.00 Build 0)  -->
<svg version="1.1"
	 id="svg2" xmlns:cc="http://creativecommons.org/ns#" xmlns:dc="http://purl.org/dc/elements/1.1/" xmlns:rdf="http://www.w3.org/1999/02/22-rdf-syntax-ns#" xmlns:svg="http://www.w3.org/2000/svg"
	 xmlns="http://www.w3.org/2000/svg" xmlns:xlink="http://www.w3.org/1999/xlink" x="0px" y="0px" viewBox="0 0 92 92"
	 style="enable-background:new 0 0 92 92;" xml:space="preserve">
<style type="text/css">
	.st0{fill:#2C2D2D;}
	.st1{fill:#13948A;}
</style>
<g>
	<path class="st0" d="M40.2,64.7c-8.4,0-15.2-6.8-15.2-15.2s6.8-15.2,15.2-15.2S55.4,41,55.4,49.5S48.6,64.7,40.2,64.7z M40.2,37.3
		c-6.7,0-12.2,5.5-12.2,12.2s5.5,12.2,12.2,12.2s12.2-5.5,12.2-12.2S46.9,37.3,40.2,37.3z"/>
	<path class="st0" d="M48.5,49.5c0,4.6-3.7,8.3-8.3,8.3c-4.6,0-8.3-3.7-8.3-8.3s3.7-8.3,8.3-8.3C44.8,41.1,48.5,44.9,48.5,49.5z"/>
	
		<rect x="48.5" y="29.7" transform="matrix(0.8098 -0.5868 0.5868 0.8098 -6.0152 43.3982)" class="st0" width="30.8" height="2.5"/>
	
		<rect x="61.4" y="53.9" transform="matrix(0.6077 -0.7941 0.7941 0.6077 -29.3987 76.3629)" class="st0" width="2.5" height="28.1"/>
	<rect x="24.2" y="16" transform="matrix(0.7908 -0.6121 0.6121 0.7908 -12.4644 21.6649)" class="st0" width="2.5" height="26.2"/>
	<rect x="10.1" y="64.8" transform="matrix(0.8768 -0.4809 0.4809 0.8768 -29.0771 18.5208)" class="st0" width="23" height="2.5"/>
	<path class="st1" d="M86.8,79.9c0,4.6-3.7,8.3-8.3,8.3c-4.6,0-8.3-3.7-8.3-8.3c0-4.6,3.7-8.3,8.3-8.3
		C83.1,71.6,86.8,75.3,86.8,79.9z"/>
	<path class="st1" d="M90.9,17.8c0,5.2-4.2,9.5-9.5,9.5c-5.2,0-9.5-4.2-9.5-9.5c0-5.2,4.2-9.5,9.5-9.5C86.7,8.4,90.9,12.6,90.9,17.8
		z"/>
	<path class="st1" d="M24.5,13.2c0,5.2-4.2,9.5-9.5,9.5c-5.2,0-9.5-4.2-9.5-9.5c0-5.2,4.2-9.5,9.5-9.5C20.3,3.8,24.5,8,24.5,13.2z"
		/>
	<path class="st1" d="M15.1,73.8c0,3.9-3.1,7-7,7c-3.9,0-7-3.1-7-7c0-3.9,3.1-7,7-7C11.9,66.8,15.1,69.9,15.1,73.8z"/>
</g>
</svg>
