<?xml version="1.0" encoding="utf-8"?>
<!-- Generator: Adobe Illustrator 23.1.1, SVG Export Plug-In . SVG Version: 6.00 Build 0)  -->
<svg version="1.1" id="Ebene_1" xmlns="http://www.w3.org/2000/svg" xmlns:xlink="http://www.w3.org/1999/xlink" x="0px" y="0px"
	 viewBox="0 0 595.3 841.9" style="enable-background:new 0 0 595.3 841.9;" xml:space="preserve">
<style type="text/css">
	.st0{fill:none;}
	.st1{fill:#2C2D2D;}
</style>
<g>
	<polygon class="st0" points="77.9,508.1 144.8,441.2 77.9,441.2 	"/>
	<path class="st0" d="M256.3,499.9h28c31.4,0,52.9-25.2,52.9-69.4v-4.7c0-35.8-14.9-53.7-37.6-59.3l-43.4,43.4V499.9z"/>
	<polygon class="st1" points="156.2,527.6 189.5,527.6 189.5,476.6 156.2,509.9 	"/>
	<polygon class="st1" points="77.9,441.2 144.8,441.2 189.5,396.5 189.5,336.3 156.2,336.3 156.2,411.6 77.9,411.6 77.9,336.3 
		44.9,336.3 44.9,527.6 58.3,527.6 77.9,508.1 	"/>
	<polygon class="st1" points="223.3,336.3 223.3,362.7 249.6,336.3 	"/>
	<path class="st1" d="M323.5,342.6l-23.8,23.8c22.6,5.6,37.6,23.5,37.6,59.3v4.7c0,44.3-21.5,69.4-52.9,69.4h-28v-90l-33,33v84.8
		h60.3c54.5,0,86.7-37.2,86.7-97v-5C370.3,380.2,353.4,353.8,323.5,342.6z"/>
	<path class="st1" d="M51.9,554.1c-5.5,5.5-5.5,14.5,0,20c2.8,2.8,6.4,4.2,10,4.2s7.3-1.4,10-4.2l84.3-84.3v-40.1L51.9,554.1z"/>
	<path class="st1" d="M307.8,338.3l50.6-50.6c5.5-5.5,5.5-14.5,0-20c-5.5-5.5-14.5-5.5-20,0l-68.6,68.6h14.2
		C292.4,336.3,300.4,337,307.8,338.3z"/>
	<polygon class="st1" points="189.5,416.5 189.5,456.6 223.3,422.8 223.3,382.7 	"/>
	<polygon class="st1" points="256.3,364.4 256.3,389.8 281.7,364.4 	"/>
	<polygon class="st1" points="156.2,449.8 156.2,489.9 189.5,456.6 189.5,416.5 	"/>
	<path class="st1" d="M281.7,364.4l26-26c-7.4-1.3-15.4-2-23.9-2h-14.2l-46.3,46.3v40.1l33-33v-25.4H281.7z"/>
</g>
</svg>
