<?xml version="1.0" encoding="utf-8"?>
<!-- Generator: Adobe Illustrator 23.1.1, SVG Export Plug-In . SVG Version: 6.00 Build 0)  -->
<svg version="1.1" id="Ebene_1" xmlns="http://www.w3.org/2000/svg" xmlns:xlink="http://www.w3.org/1999/xlink" x="0px" y="0px"
	 viewBox="0 0 841.9 595.3" style="enable-background:new 0 0 841.9 595.3;" xml:space="preserve">
<style type="text/css">
	.st0{fill:#292D2D;}
</style>
<path class="st0" d="M649.2,333.1c-29.4-111.5-86.8-171.7-89.2-174.3c-0.1-0.1-0.2-0.2-0.3-0.3c-2.5-2.4-62.8-59.8-174.3-89.2
	c-1.6-0.4-3.3-0.7-5-0.7c-8.8,0-16,5.9-17.7,14.5c-1.9,9.7,4.2,19.7,13.9,22.8c20.5,6.6,86.1,29.6,121.2,62.3L460.3,206
	c-3.2,3.2-4.3,7.8-3.2,11.9L198.9,476c-9.2,9.2-9.2,24.1,0,33.2l10.4,10.4c4.4,4.4,10.3,6.9,16.6,6.9c6.3,0,12.2-2.4,16.6-6.9
	l258.1-258.1c1,0.3,2.1,0.4,3.2,0.4c3.3,0,6.4-1.3,8.7-3.6l37.7-37.7c32.7,35.1,55.7,100.7,62.3,121.2c2.7,8.4,10.6,14.2,19.3,14.2
	c1.2,0,2.4-0.1,3.6-0.3c4.9-1,9.1-3.8,11.7-8C649.8,343.5,650.6,338.2,649.2,333.1z M239,505.7c-7.2,7.2-18.9,7.2-26.2,0l0,0
	c-7.2-7.2-7.2-18.9,0-26.2l258.4-258.4l26.2,26.2L239,505.7z M633.1,343.6c-3.6,0.7-7.5-1.8-8.7-5.6
	c-7.6-23.4-34.8-100.7-74.2-134.8l-46.3,46.3l-17.4-17.4L469,214.7l46.3-46.3c-34.1-39.4-111.4-66.6-134.8-74.2
	c-3.7-1.2-6.2-5.1-5.6-8.7c0.6-3.3,3.8-5.1,7.3-4.2c109.6,28.9,168.8,86.1,168.8,86.1s57.2,59.2,86.1,168.8
	C638.2,339.8,636.4,343,633.1,343.6z"/>
</svg>
