<?xml version="1.0" encoding="utf-8"?>
<!-- Generator: Adobe Illustrator 23.1.1, SVG Export Plug-In . SVG Version: 6.00 Build 0)  -->
<svg version="1.1"
	 id="svg2" xmlns:cc="http://creativecommons.org/ns#" xmlns:dc="http://purl.org/dc/elements/1.1/" xmlns:rdf="http://www.w3.org/1999/02/22-rdf-syntax-ns#" xmlns:svg="http://www.w3.org/2000/svg"
	 xmlns="http://www.w3.org/2000/svg" xmlns:xlink="http://www.w3.org/1999/xlink" x="0px" y="0px" viewBox="0 0 92 92"
	 style="enable-background:new 0 0 92 92;" xml:space="preserve">
<style type="text/css">
	.st0{fill:#808080;}
	.st1{fill:none;stroke:#2C2D2D;stroke-width:8.5039;stroke-linecap:round;stroke-linejoin:round;stroke-miterlimit:10;}
</style>
<g>
	<g>
		<path class="st0" d="M39.6,62.9c-7.9,0-14.3-6.4-14.3-14.3s6.4-14.3,14.3-14.3s14.3,6.4,14.3,14.3S47.5,62.9,39.6,62.9z
			 M39.6,37.1c-6.3,0-11.4,5.1-11.4,11.4S33.3,60,39.6,60s11.4-5.1,11.4-11.4S45.9,37.1,39.6,37.1z"/>
		<path class="st0" d="M12.7,24.4c-1.6,0-3.3-0.4-4.7-1.2c-4.7-2.6-6.4-8.6-3.8-13.3c2.6-4.7,8.6-6.4,13.3-3.8
			c2.3,1.3,3.9,3.4,4.7,5.9c0.7,2.5,0.4,5.2-0.9,7.4c-1.3,2.3-3.4,3.9-5.9,4.7C14.5,24.3,13.6,24.4,12.7,24.4z M12.8,7.9
			c-2.4,0-4.6,1.2-5.9,3.4c-1.8,3.2-0.6,7.3,2.6,9.1c1.6,0.9,3.4,1.1,5.1,0.6c1.7-0.5,3.1-1.6,4-3.2l0,0c0.9-1.6,1.1-3.4,0.6-5.1
			c-0.5-1.7-1.6-3.1-3.2-4C15,8.2,13.9,7.9,12.8,7.9z"/>
		<path class="st0" d="M80.9,27.6c-1.6,0-3.3-0.4-4.7-1.2c-4.7-2.6-6.4-8.6-3.8-13.3c2.6-4.7,8.6-6.4,13.3-3.8
			c2.3,1.3,3.9,3.4,4.7,5.9c0.7,2.5,0.4,5.2-0.9,7.4c-1.3,2.3-3.4,3.9-5.9,4.7C82.7,27.4,81.8,27.6,80.9,27.6z M80.9,11.1
			c-2.4,0-4.6,1.2-5.9,3.4c-1.8,3.2-0.6,7.3,2.6,9.1c1.6,0.9,3.4,1.1,5.1,0.6c1.7-0.5,3.1-1.6,4-3.2l0,0c0.9-1.6,1.1-3.4,0.6-5.1
			c-0.5-1.7-1.6-3.1-3.2-4C83.1,11.4,82,11.1,80.9,11.1z"/>
		<path class="st0" d="M8.8,79.1c-4.1,0-7.5-3.4-7.5-7.5c0-4.1,3.4-7.5,7.5-7.5c4.1,0,7.5,3.4,7.5,7.5C16.3,75.8,12.9,79.1,8.8,79.1
			z M8.8,67.2c-2.4,0-4.4,2-4.4,4.4c0,2.4,2,4.4,4.4,4.4c2.4,0,4.4-2,4.4-4.4C13.2,69.2,11.2,67.2,8.8,67.2z"/>
		<path class="st0" d="M76,87.1c-5.1,0-9.3-4.2-9.3-9.3c0-5.1,4.2-9.3,9.3-9.3c5.1,0,9.3,4.2,9.3,9.3C85.3,83,81.1,87.1,76,87.1z
			 M76,71.6c-3.4,0-6.2,2.8-6.2,6.2c0,3.4,2.8,6.2,6.2,6.2c3.4,0,6.2-2.8,6.2-6.2C82.2,74.4,79.4,71.6,76,71.6z"/>
		<path class="st0" d="M47.4,48.6c0,4.3-3.5,7.8-7.8,7.8c-4.3,0-7.8-3.5-7.8-7.8s3.5-7.8,7.8-7.8C43.9,40.8,47.4,44.3,47.4,48.6z"/>
		
			<rect x="47.4" y="30.1" transform="matrix(0.8098 -0.5868 0.5868 0.8098 -6.5723 42.247)" class="st0" width="28.9" height="2.3"/>
		
			<rect x="59.5" y="52.7" transform="matrix(0.6077 -0.7941 0.7941 0.6077 -28.5516 73.9975)" class="st0" width="2.3" height="26.3"/>
		
			<rect x="24.7" y="17.2" transform="matrix(0.7908 -0.6121 0.6121 0.7908 -12.6353 21.9719)" class="st0" width="2.3" height="24.6"/>
		
			<rect x="11.4" y="62.9" transform="matrix(0.8768 -0.4809 0.4809 0.8768 -28.08 18.5761)" class="st0" width="21.6" height="2.3"/>
	</g>
	<g>
		<line class="st1" x1="23.8" y1="23.8" x2="68.2" y2="68.2"/>
		<line class="st1" x1="68.2" y1="23.8" x2="23.8" y2="68.2"/>
	</g>
</g>
</svg>
