<?xml version="1.0" encoding="utf-8"?>
<!-- Generator: Adobe Illustrator 23.1.1, SVG Export Plug-In . SVG Version: 6.00 Build 0)  -->
<svg version="1.1"
	 id="svg2991" inkscape:export-xdpi="90" inkscape:export-ydpi="90" inkscape:version="0.48.4 r9939" xmlns:cc="http://creativecommons.org/ns#" xmlns:dc="http://purl.org/dc/elements/1.1/" xmlns:inkscape="http://www.inkscape.org/namespaces/inkscape" xmlns:rdf="http://www.w3.org/1999/02/22-rdf-syntax-ns#" xmlns:sodipodi="http://sodipodi.sourceforge.net/DTD/sodipodi-0.dtd" xmlns:svg="http://www.w3.org/2000/svg"
	 xmlns="http://www.w3.org/2000/svg" xmlns:xlink="http://www.w3.org/1999/xlink" x="0px" y="0px" viewBox="0 0 128 128"
	 style="enable-background:new 0 0 128 128;" xml:space="preserve">
<style type="text/css">
	.st0{fill:#292D2D;}
</style>
<g>
	
		<sodipodi:namedview  bordercolor="#666666" borderopacity="1.0" id="base" inkscape:current-layer="layer1" inkscape:cx="4.0410731" inkscape:cy="31.916897" inkscape:document-units="px" inkscape:grid-bbox="true" inkscape:pageopacity="0.0" inkscape:pageshadow="2" inkscape:window-height="1056" inkscape:window-maximized="1" inkscape:window-width="1920" inkscape:window-x="0" inkscape:window-y="24" inkscape:zoom="3.8890872" pagecolor="#ffffff" showgrid="true">
		</sodipodi:namedview>
	<path class="st0" d="M89.6,117.1H38.7c-5.9,0-10.9-6.2-10.9-13.5V22.5c0-7.1,4.9-12.8,10.9-12.8h50.9c5.9,0,10.6,5.6,10.6,12.8
		v81.1C100.2,111,95.4,117.1,89.6,117.1z M38.7,13.7c-3.8,0-6.9,4-6.9,8.8v81.1c0,5,3.2,9.5,6.9,9.5h50.9c3.5,0,6.5-4.3,6.5-9.5
		V22.5c0-4.9-2.9-8.8-6.5-8.8H38.7z"/>
	<rect x="41.4" y="11.7" class="st0" width="4" height="103.4"/>
	<rect x="80.6" y="11.7" class="st0" width="4" height="103.4"/>
	<g>
		<path class="st0" d="M56.7,50.6H64c4.7,0,7.4,2.2,7.4,6.5c0,4.5-3.1,6.9-7.2,6.9h-3.8v7.6h-3.6V50.6z M63.4,60.9
			c2.8,0,4.4-1.4,4.4-3.7c0-2.5-1.5-3.5-4.4-3.5h-3.1v7.2H63.4z"/>
	</g>
</g>
</svg>
