<?xml version="1.0" encoding="utf-8"?>
<!-- Generator: Adobe Illustrator 23.1.1, SVG Export Plug-In . SVG Version: 6.00 Build 0)  -->
<svg version="1.1"
	 id="Ebene_1" xmlns:cc="http://creativecommons.org/ns#" xmlns:dc="http://purl.org/dc/elements/1.1/" xmlns:rdf="http://www.w3.org/1999/02/22-rdf-syntax-ns#" xmlns:svg="http://www.w3.org/2000/svg"
	 xmlns="http://www.w3.org/2000/svg" xmlns:xlink="http://www.w3.org/1999/xlink" x="0px" y="0px" viewBox="0 0 609.4 609.4"
	 style="enable-background:new 0 0 609.4 609.4;" xml:space="preserve">
<style type="text/css">
	.st0{fill:#2C2D2D;}
	.st1{fill:#FFFFFF;}
</style>
<g>
	<path class="st0" d="M577.6,422.2H31.8c-9.4,0-17-7.7-17-17V204.3c0-9.4,7.7-17,17-17h545.8c9.4,0,17,7.7,17,17v200.9
		C594.6,414.5,586.9,422.2,577.6,422.2z"/>
	<path class="st1" d="M439.1,279.5c-9,0-16.1,5-21.7,9.7c-5.7,4.7-11.2,8.3-19.6,8.8c-3,0.2-18.4,0.2-21.4,0
		c-7.5-0.6-13.3-3.7-18.8-8.1c-4.9-6.6-12.8-10.9-21.7-10.9c-15,0-27.1,12.1-27.1,27.1c0,6.6,2.3,12.6,6.2,17.3
		c5,6,12.5,9.8,20.9,9.8c7.2,0,13.7-2.8,18.6-7.4c0.9-0.9,1.8-1.8,2.6-2.8c5.6-5.3,11.1-7.8,19.4-8.5c3-0.3,17.3-0.3,21.4,0
		c8.4,0.5,13.9,4,19.6,8.7c5.7,4.7,12.7,9.7,21.7,9.7c15.1,0,25.5-11.6,25.5-26.7C464.6,291.1,454.3,279.5,439.1,279.5z"/>
	<circle class="st1" cx="506.4" cy="306" r="27.1"/>
	<path class="st1" d="M165.6,252c0-3.7,3.1-6.8,6.8-6.8c3.7,0,6.8,3.1,6.8,6.8v83.8c0,17.4-12.8,29.5-29.1,29.5
		s-29.3-12.1-29.3-29.5v-62.2c0-9.3-7.1-16.3-15.7-16.3c-8.6,0-15.6,7-15.6,16.3v83.8c0,3.7-3.1,6.8-6.8,6.8c-3.7,0-6.8-3.1-6.8-6.8
		v-83.8c0-17.4,12.8-29.5,29.1-29.5s29.3,12.1,29.3,29.5v62.2c0,9.3,7.1,16.3,15.7,16.3c8.6,0,15.6-7,15.6-16.3V252z"/>
	<path class="st1" d="M250.1,362.9c-33.1,0-58.4-25.3-58.4-58.2c0-32.9,25.3-58.2,58.4-58.2h22.7c3.5,0,6.4,2.9,6.4,6.4
		c0,3.5-2.9,6.4-6.4,6.4h-22.5c-25.6,0-45,19.6-45,45.4c0,25.8,19.4,45.4,45,45.4h22.5c3.5,0,6.4,2.9,6.4,6.4c0,3.5-2.9,6.4-6.4,6.4
		H250.1z"/>
	<path class="st1" d="M337.5,362.9c-33.1,0-58.4-25.3-58.4-58.2c0-32.9,25.3-58.2,58.4-58.2h22.7c3.5,0,6.4,2.9,6.4,6.4
		c0,3.5-2.9,6.4-6.4,6.4h-22.5c-25.6,0-45,19.6-45,45.4c0,25.8,19.4,45.4,45,45.4h22.5c3.5,0,6.4,2.9,6.4,6.4c0,3.5-2.9,6.4-6.4,6.4
		H337.5z"/>
</g>
</svg>
