<?xml version="1.0" encoding="utf-8"?>
<!-- Generator: Adobe Illustrator 23.1.1, SVG Export Plug-In . SVG Version: 6.00 Build 0)  -->
<svg version="1.1"
	 id="svg4142" xmlns:cc="http://creativecommons.org/ns#" xmlns:dc="http://purl.org/dc/elements/1.1/" xmlns:rdf="http://www.w3.org/1999/02/22-rdf-syntax-ns#" xmlns:svg="http://www.w3.org/2000/svg"
	 xmlns="http://www.w3.org/2000/svg" xmlns:xlink="http://www.w3.org/1999/xlink" x="0px" y="0px" viewBox="0 0 102.4 102.4"
	 style="enable-background:new 0 0 102.4 102.4;" xml:space="preserve">
<style type="text/css">
	.st0{fill:#2C2D2D;}
</style>
<g>
	<path class="st0" d="M42.7,56c0-6.5,1.4-9,6.8-12.4l2.9-1.8c3.9-2.4,6.5-5.2,6.5-8.6c0-3.5-2.8-6.7-7.8-6.7c-4.8,0-7.7,2.3-9,6.4
		c-1,3.4-4.6,4.9-8.2,3.8c-3.3-1-5.2-3.8-4.5-7.4c1.6-8.6,9.8-15.6,20.8-15.6c13.9,0,22.9,7.7,22.9,19.6c0,8.1-4.7,13.1-11.5,17.5
		L59,52.5c-1.8,1.2-2.3,2.4-2.3,4.3v1.7c0,4.4-2.7,6.9-7,6.9s-7-2.5-7-6.9V56z M49.7,71.4c4.7,0,8.6,3.9,8.6,8.6s-3.9,8.6-8.6,8.6
		S41,84.7,41,80S45,71.4,49.7,71.4z"/>
</g>
</svg>
