<?xml version="1.0" encoding="utf-8"?>
<!-- Generator: Adobe Illustrator 23.1.1, SVG Export Plug-In . SVG Version: 6.00 Build 0)  -->
<svg version="1.1" id="Ebene_1" xmlns="http://www.w3.org/2000/svg" xmlns:xlink="http://www.w3.org/1999/xlink" x="0px" y="0px"
	 viewBox="0 0 24 24" style="enable-background:new 0 0 24 24;" xml:space="preserve">
<style type="text/css">
	.st0{fill:#292D2D;}
</style>
<g>
	<g>
		<path class="st0" d="M11.7,18.7c0.1,0.1,0.2,0.1,0.3,0.1c0.1,0,0.2,0,0.3-0.1l2.6-2.6c0.2-0.2,0.2-0.4,0-0.6
			c-0.2-0.2-0.4-0.2-0.6,0l-1.9,1.9v-5.3c0-0.2-0.2-0.4-0.4-0.4c-0.2,0-0.4,0.2-0.4,0.4v5.3l-1.9-1.9c-0.2-0.2-0.4-0.2-0.6,0
			c-0.2,0.2-0.2,0.4,0,0.6L11.7,18.7z"/>
		<path class="st0" d="M12.3,8.8c-0.1-0.1-0.2-0.1-0.3-0.1c-0.1,0-0.2,0-0.3,0.1l-2.6,2.6c-0.2,0.2-0.2,0.4,0,0.6
			c0.2,0.2,0.4,0.2,0.6,0l1.9-1.9v5.3c0,0.2,0.2,0.4,0.4,0.4s0.4-0.2,0.4-0.4v-5.3l1.9,1.9c0.2,0.2,0.4,0.2,0.6,0
			c0.2-0.2,0.2-0.4,0-0.6L12.3,8.8z"/>
		<path class="st0" d="M8,7.9h8c0.2,0,0.4-0.2,0.4-0.4C16.4,7.2,16.2,7,16,7H8C7.8,7,7.6,7.2,7.6,7.5C7.6,7.7,7.8,7.9,8,7.9z"/>
	</g>
	<path class="st0" d="M12,21.3c-5.1,0-9.3-4.2-9.3-9.3c0-5.1,4.2-9.3,9.3-9.3c5.1,0,9.3,4.2,9.3,9.3C21.3,17.1,17.1,21.3,12,21.3z
		 M12,3.9c-4.5,0-8.1,3.6-8.1,8.1s3.6,8.1,8.1,8.1s8.1-3.6,8.1-8.1S16.5,3.9,12,3.9z"/>
</g>
</svg>
