<?xml version="1.0" encoding="utf-8"?>
<!-- Generator: Adobe Illustrator 23.1.1, SVG Export Plug-In . SVG Version: 6.00 Build 0)  -->
<svg version="1.1" id="Ebene_1" xmlns="http://www.w3.org/2000/svg" xmlns:xlink="http://www.w3.org/1999/xlink" x="0px" y="0px"
	 viewBox="0 0 841.9 595.3" style="enable-background:new 0 0 841.9 595.3;" xml:space="preserve">
<style type="text/css">
	.st0{fill:#292D2D;}
	.st1{fill:#262727;}
</style>
<g>
	<g>
		<path class="st0" d="M514.3,189.9c-20.6,0-37.3-16.5-37.3-36.8s16.7-36.8,37.3-36.8c20.6,0,37.3,16.5,37.3,36.8
			S534.9,189.9,514.3,189.9z M514.3,132.6c-11.6,0-21,9.2-21,20.4c0,11.3,9.4,20.4,21,20.4c11.6,0,21-9.2,21-20.4
			C535.2,141.8,525.8,132.6,514.3,132.6z"/>
		
			<rect x="159.5" y="379.5" transform="matrix(0.733 -0.6802 0.6802 0.733 -180.7843 314.6968)" class="st0" width="302" height="16.4"/>
		<path class="st1" d="M211.6,529.3l-4.8-3.9c-3-2.4-4.8-3.9-5.9-4.7c-1.9-1.3-4.5-3.4-8.9-6.9l-4.9-4l0.4-6.3
			c1.3-19.9,2.5-31.1,3.8-43c1-8.7,2-18,3.1-31.7l0.4-4.6l3.3-3.2c76.9-73.9,121.2-115,189.5-178.2c-5.2-13.8-7.5-27.6-7.5-44.6
			c0-74.4,61.6-135,137.2-135c75.7,0,137.2,60.6,137.2,135c0,74.5-61.6,135-137.2,135c-11.1,0-22.2-1.3-32.8-3.9
			c-8.9,8.5-24.3,23.5-46,44.7l-3.4,3.4l-36.1,1l-17,53.8l-44.6,9.7l-5.9,37.5l-29,28.5l-2.9,0.9c-4,1.2-11,2.7-21.5,5
			c-15,3.2-35.6,7.7-60.6,14.1L211.6,529.3z M213.4,499.4c1.1,0.7,2.3,1.7,4,3.1c22.8-5.7,41.6-9.8,55.6-12.8
			c7.1-1.5,13-2.8,16.7-3.7l18.8-18.5l7.3-46.1l47.1-10.2l17.9-56.9l44-1.3c24.7-24.1,40.8-39.8,47.9-46.4l5.1-4.8l6.7,2
			c10.6,3.1,21.6,4.7,32.8,4.7c62.1,0,112.7-49.6,112.7-110.5c0-60.9-50.5-110.5-112.7-110.5c-62.1,0-112.7,49.5-112.7,110.5
			c0,16.6,2.6,29.4,8.7,42.7l3.7,8.1l-6.5,6.1c-70.9,65.5-115.1,106.5-192.1,180.5c-1,11.5-1.9,19.9-2.8,27.8
			c-1.1,10.2-2.2,20-3.3,35.5C212.8,499,213.1,499.2,213.4,499.4z"/>
	</g>
	<path class="st0" d="M502.7,532.2c-6.7,0-13.2-2.7-18.1-7.5l-50.9-51c-9.9-10-9.9-26.1,0-36.1c10-9.9,26.1-9.9,36.1,0l30.8,30.8
		l84.2-105.2c8.8-11,24.9-12.8,35.9-4c11,8.8,12.8,24.9,4,35.9l-102,127.5c-4.5,5.7-11.3,9.1-18.5,9.5
		C503.7,532.2,503.2,532.2,502.7,532.2z"/>
</g>
</svg>
